<?xml version="1.0" encoding="UTF-8"?>
<svg xmlns="http://www.w3.org/2000/svg" version="1.1" viewBox="0 0 25 16">
  <defs>
    <style>
      .cls-1 {
        fill: #0051a2;
      }
    </style>
  </defs>
  <!-- Generator: Adobe Illustrator 28.7.1, SVG Export Plug-In . SVG Version: 1.2.0 Build 142)  -->
  <g>
    <g id="Layer_1">
      <path class="cls-1" d="M14.72,16H.64c-.35,0-.64-.29-.64-.64V2.56c0-.35.29-.64.64-.64h14.08c.35,0,.64.29.64.64v12.8c0,.35-.29.64-.64.64ZM1.28,14.72h12.8V3.2H1.28v11.52Z"/>
      <path class="cls-1" d="M14.72,7.04H.64c-.35,0-.64-.29-.64-.64s.29-.64.64-.64h14.08c.35,0,.64.29.64.64s-.29.64-.64.64Z"/>
      <path class="cls-1" d="M4.48,4.48c-.35,0-.64-.29-.64-.64V.64c0-.35.29-.64.64-.64s.64.29.64.64v3.2c0,.35-.29.64-.64.64Z"/>
      <path class="cls-1" d="M10.88,4.48c-.35,0-.64-.29-.64-.64V.64c0-.35.29-.64.64-.64s.64.29.64.64v3.2c0,.35-.29.64-.64.64Z"/>
      <path class="cls-1" d="M7.49,13.03c-.15,0-.3-.05-.43-.16l-1.99-1.78c-.26-.24-.29-.64-.05-.9.24-.26.64-.29.9-.05l1.54,1.38,2.77-2.77c.25-.25.66-.25.91,0s.25.66,0,.91l-3.2,3.2c-.12.12-.29.19-.45.19Z"/>
    </g>
  </g>
</svg>