<svg xmlns="http://www.w3.org/2000/svg" width="18.68" height="21.499" viewBox="0 0 18.68 21.499">
  <g id="그룹_336" data-name="그룹 336" transform="translate(-1192.363 -175.25)">
    <path id="패스_323" data-name="패스 323" d="M18.43,30.756c0,2.007-3.846,3.633-8.59,3.633s-8.59-1.627-8.59-3.633S5.1,27.123,9.84,27.123s8.59,1.627,8.59,3.633" transform="translate(1191.863 161.609)" fill="#fff" stroke="#fff" stroke-width="1.5"/>
    <ellipse id="타원_70" data-name="타원 70" cx="8.59" cy="3.633" rx="8.59" ry="3.633" transform="translate(1193.113 188.732)" fill="none" stroke="#0051a2" stroke-linecap="round" stroke-linejoin="round" stroke-width="1.5"/>
    <path id="패스_324" data-name="패스 324" d="M18.515,7.125c0,3.244-5.874,10.493-5.874,10.493S6.767,10.369,6.767,7.125a5.874,5.874,0,1,1,11.748,0" transform="translate(1189.062 174.75)" fill="#fff" stroke="#0051a2" stroke-width="1.5"/>
    <path id="패스_326" data-name="패스 326" d="M18.632,10.91A2.206,2.206,0,1,1,16.426,8.7a2.205,2.205,0,0,1,2.206,2.206" transform="translate(1185.275 170.965)" fill="#0051a2" stroke="#fff" stroke-width="1.5"/>
  </g>
</svg>
